<svg width="1400" height="875" xmlns="http://www.w3.org/2000/svg">
  <defs>
    <linearGradient id="mockupBg1" x1="0%" y1="0%" x2="100%" y2="100%">
      <stop offset="0%" style="stop-color:#111827"/>
      <stop offset="100%" style="stop-color:#1f2937"/>
    </linearGradient>
  </defs>
  <rect width="100%" height="100%" fill="#0a0a0b"/>
  
  <!-- App frame -->
  <rect x="50" y="40" width="1300" height="795" rx="12" fill="url(#mockupBg1)" stroke="#374151"/>
  
  <!-- Header bar -->
  <rect x="50" y="40" width="1300" height="44" rx="12" fill="#1f2937"/>
  <circle cx="78" cy="62" r="6" fill="#ef4444"/>
  <circle cx="100" cy="62" r="6" fill="#f59e0b"/>
  <circle cx="122" cy="62" r="6" fill="#22c55e"/>
  <text x="700" y="68" text-anchor="middle" fill="#9ca3af" font-family="system-ui" font-size="14">Face Grouping — Evidence #4829</text>
  
  <!-- Video preview -->
  <rect x="80" y="104" width="800" height="450" rx="8" fill="#0a0a0b"/>
  <rect x="80" y="104" width="800" height="450" rx="8" fill="none" stroke="#374151"/>
  
  <!-- Play button -->
  <circle cx="480" cy="329" r="36" fill="#3b82f6"/>
  <polygon points="470,309 470,349 502,329" fill="white"/>
  
  <!-- Redaction boxes on video -->
  <rect x="200" y="200" width="80" height="100" rx="4" fill="none" stroke="#ef4444" stroke-width="2" stroke-dasharray="4"/>
  <rect x="380" y="180" width="90" height="110" rx="4" fill="none" stroke="#22c55e" stroke-width="2"/>
  <rect x="600" y="220" width="75" height="95" rx="4" fill="none" stroke="#f59e0b" stroke-width="2"/>
  
  <!-- Timeline -->
  <rect x="80" y="574" width="800" height="48" rx="4" fill="#1f2937"/>
  <rect x="100" y="590" width="760" height="16" rx="2" fill="#374151"/>
  <rect x="100" y="590" width="280" height="16" rx="2" fill="#3b82f6"/>
  
  <!-- Face markers on timeline -->
  <rect x="150" y="584" width="4" height="28" fill="#ef4444"/>
  <rect x="220" y="584" width="4" height="28" fill="#22c55e"/>
  <rect x="300" y="584" width="4" height="28" fill="#22c55e"/>
  <rect x="380" y="584" width="4" height="28" fill="#f59e0b"/>
  
  <!-- Face grouping panel -->
  <rect x="910" y="104" width="410" height="518" rx="8" fill="#1f2937"/>
  <text x="940" y="140" fill="#f3f4f6" font-family="system-ui" font-size="16" font-weight="600">Face Groups</text>
  
  <!-- Face group 1 - Redacted -->
  <rect x="930" y="160" width="370" height="90" rx="6" fill="#111827" stroke="#ef4444"/>
  <circle cx="980" cy="205" r="30" fill="#374151"/>
  <rect x="960" y="185" width="40" height="40" rx="20" fill="#ef4444" opacity="0.3"/>
  <text x="1030" y="195" fill="#f3f4f6" font-family="system-ui" font-size="14">Subject A</text>
  <text x="1030" y="218" fill="#9ca3af" font-family="system-ui" font-size="12">12 appearances • Redacted</text>
  <rect x="1220" y="190" width="60" height="28" rx="4" fill="#ef4444"/>
  <text x="1250" y="209" text-anchor="middle" fill="white" font-family="system-ui" font-size="11">Blur</text>
  
  <!-- Face group 2 - Keep -->
  <rect x="930" y="264" width="370" height="90" rx="6" fill="#111827" stroke="#22c55e"/>
  <circle cx="980" cy="309" r="30" fill="#374151"/>
  <text x="1030" y="299" fill="#f3f4f6" font-family="system-ui" font-size="14">Officer Johnson</text>
  <text x="1030" y="322" fill="#9ca3af" font-family="system-ui" font-size="12">8 appearances • Visible</text>
  <rect x="1220" y="294" width="60" height="28" rx="4" fill="#22c55e"/>
  <text x="1250" y="313" text-anchor="middle" fill="white" font-family="system-ui" font-size="11">Keep</text>
  
  <!-- Face group 3 - Pending -->
  <rect x="930" y="368" width="370" height="90" rx="6" fill="#111827" stroke="#f59e0b"/>
  <circle cx="980" cy="413" r="30" fill="#374151"/>
  <text x="1030" y="403" fill="#f3f4f6" font-family="system-ui" font-size="14">Unknown Person</text>
  <text x="1030" y="426" fill="#9ca3af" font-family="system-ui" font-size="12">3 appearances • Review</text>
  <rect x="1220" y="398" width="60" height="28" rx="4" fill="#f59e0b"/>
  <text x="1250" y="417" text-anchor="middle" fill="white" font-family="system-ui" font-size="11">Review</text>
  
  <!-- Stats bar -->
  <rect x="930" y="480" width="370" height="60" rx="6" fill="#111827"/>
  <text x="960" y="518" fill="#9ca3af" font-family="system-ui" font-size="12">3 groups • 23 faces detected • 70% auto-classified</text>
  
  <!-- Bottom toolbar -->
  <rect x="80" y="642" width="800" height="48" rx="4" fill="#1f2937"/>
  <rect x="100" y="654" width="100" height="24" rx="4" fill="#3b82f6"/>
  <text x="150" y="671" text-anchor="middle" fill="white" font-family="system-ui" font-size="12">Apply All</text>
  <rect x="220" y="654" width="80" height="24" rx="4" fill="#374151"/>
  <text x="260" y="671" text-anchor="middle" fill="#9ca3af" font-family="system-ui" font-size="12">Undo</text>
</svg>

