<svg width="1400" height="875" xmlns="http://www.w3.org/2000/svg">
  <rect width="100%" height="100%" fill="#0a0a0b"/>
  
  <!-- App frame -->
  <rect x="50" y="40" width="1300" height="795" rx="12" fill="#111827" stroke="#374151"/>
  
  <!-- Header bar -->
  <rect x="50" y="40" width="1300" height="44" rx="12" fill="#1f2937"/>
  <circle cx="78" cy="62" r="6" fill="#ef4444"/>
  <circle cx="100" cy="62" r="6" fill="#f59e0b"/>
  <circle cx="122" cy="62" r="6" fill="#22c55e"/>
  <text x="700" y="68" text-anchor="middle" fill="#9ca3af" font-family="system-ui" font-size="14">Audio PII Redaction — Call Recording #7291</text>
  
  <!-- Main content area -->
  <rect x="80" y="104" width="900" height="600" rx="8" fill="#1f2937"/>
  
  <!-- Waveform visualization -->
  <rect x="110" y="140" width="840" height="120" rx="4" fill="#0a0a0b"/>
  <!-- Waveform bars -->
  <g fill="#3b82f6" opacity="0.6">
    <rect x="130" y="180" width="8" height="40" rx="2"/>
    <rect x="150" y="170" width="8" height="60" rx="2"/>
    <rect x="170" y="175" width="8" height="50" rx="2"/>
    <rect x="190" y="160" width="8" height="80" rx="2"/>
    <rect x="210" y="165" width="8" height="70" rx="2"/>
    <rect x="230" y="180" width="8" height="40" rx="2"/>
    <rect x="250" y="185" width="8" height="30" rx="2"/>
    <!-- Redacted section (red) -->
  </g>
  <g fill="#ef4444" opacity="0.8">
    <rect x="270" y="170" width="8" height="60" rx="2"/>
    <rect x="290" y="160" width="8" height="80" rx="2"/>
    <rect x="310" y="165" width="8" height="70" rx="2"/>
    <rect x="330" y="175" width="8" height="50" rx="2"/>
  </g>
  <g fill="#3b82f6" opacity="0.6">
    <rect x="350" y="180" width="8" height="40" rx="2"/>
    <rect x="370" y="175" width="8" height="50" rx="2"/>
    <rect x="390" y="185" width="8" height="30" rx="2"/>
    <rect x="410" y="170" width="8" height="60" rx="2"/>
    <rect x="430" y="165" width="8" height="70" rx="2"/>
    <rect x="450" y="180" width="8" height="40" rx="2"/>
    <!-- Another redacted section -->
  </g>
  <g fill="#ef4444" opacity="0.8">
    <rect x="470" y="160" width="8" height="80" rx="2"/>
    <rect x="490" y="170" width="8" height="60" rx="2"/>
  </g>
  <g fill="#3b82f6" opacity="0.6">
    <rect x="510" y="175" width="8" height="50" rx="2"/>
    <rect x="530" y="180" width="8" height="40" rx="2"/>
    <rect x="550" y="170" width="8" height="60" rx="2"/>
    <rect x="570" y="185" width="8" height="30" rx="2"/>
    <rect x="590" y="175" width="8" height="50" rx="2"/>
  </g>
  
  <!-- Playhead -->
  <rect x="400" y="140" width="2" height="120" fill="#22c55e"/>
  <polygon points="395,138 405,138 400,130" fill="#22c55e"/>
  
  <!-- Transcript section -->
  <rect x="110" y="280" width="840" height="400" rx="4" fill="#0a0a0b"/>
  
  <!-- Transcript header -->
  <rect x="130" y="300" width="800" height="36" rx="4" fill="#1f2937"/>
  <text x="150" y="324" fill="#9ca3af" font-family="system-ui" font-size="12">TRANSCRIPT</text>
  <text x="350" y="324" fill="#9ca3af" font-family="system-ui" font-size="12">PII DETECTED</text>
  <text x="550" y="324" fill="#9ca3af" font-family="system-ui" font-size="12">STATUS</text>
  <text x="750" y="324" fill="#9ca3af" font-family="system-ui" font-size="12">ACTIONS</text>
  
  <!-- Transcript row 1 -->
  <rect x="130" y="350" width="800" height="60" rx="4" fill="#111827"/>
  <text x="150" y="378" fill="#f3f4f6" font-family="system-ui" font-size="13">0:05 - "Hi, my name is</text>
  <rect x="330" y="363" width="80" height="24" rx="4" fill="#ef4444" opacity="0.2"/>
  <text x="340" y="380" fill="#ef4444" font-family="system-ui" font-size="12">John Smith</text>
  <text x="420" y="378" fill="#f3f4f6" font-family="system-ui" font-size="13">"</text>
  <rect x="550" y="363" width="70" height="24" rx="4" fill="#ef4444"/>
  <text x="585" y="380" text-anchor="middle" fill="white" font-family="system-ui" font-size="11">NAME</text>
  <rect x="640" y="363" width="60" height="24" rx="4" fill="#22c55e"/>
  <text x="670" y="380" text-anchor="middle" fill="white" font-family="system-ui" font-size="11">Muted</text>
  <rect x="720" y="363" width="50" height="24" rx="4" fill="#374151"/>
  <text x="745" y="380" text-anchor="middle" fill="#9ca3af" font-family="system-ui" font-size="11">Edit</text>
  
  <!-- Transcript row 2 -->
  <rect x="130" y="420" width="800" height="60" rx="4" fill="#1f2937"/>
  <text x="150" y="448" fill="#f3f4f6" font-family="system-ui" font-size="13">0:12 - "My SSN is</text>
  <rect x="280" y="433" width="100" height="24" rx="4" fill="#ef4444" opacity="0.2"/>
  <text x="290" y="450" fill="#ef4444" font-family="system-ui" font-size="12">123-45-6789</text>
  <text x="390" y="448" fill="#f3f4f6" font-family="system-ui" font-size="13">"</text>
  <rect x="550" y="433" width="70" height="24" rx="4" fill="#ef4444"/>
  <text x="585" y="450" text-anchor="middle" fill="white" font-family="system-ui" font-size="11">SSN</text>
  <rect x="640" y="433" width="60" height="24" rx="4" fill="#22c55e"/>
  <text x="670" y="450" text-anchor="middle" fill="white" font-family="system-ui" font-size="11">Muted</text>
  <rect x="720" y="433" width="50" height="24" rx="4" fill="#374151"/>
  <text x="745" y="450" text-anchor="middle" fill="#9ca3af" font-family="system-ui" font-size="11">Edit</text>
  
  <!-- Transcript row 3 - pending -->
  <rect x="130" y="490" width="800" height="60" rx="4" fill="#111827"/>
  <text x="150" y="518" fill="#f3f4f6" font-family="system-ui" font-size="13">0:28 - "I live at</text>
  <rect x="260" y="503" width="140" height="24" rx="4" fill="#f59e0b" opacity="0.2"/>
  <text x="270" y="520" fill="#f59e0b" font-family="system-ui" font-size="12">123 Main Street</text>
  <text x="410" y="518" fill="#f3f4f6" font-family="system-ui" font-size="13">"</text>
  <rect x="550" y="503" width="70" height="24" rx="4" fill="#f59e0b"/>
  <text x="585" y="520" text-anchor="middle" fill="white" font-family="system-ui" font-size="11">ADDRESS</text>
  <rect x="640" y="503" width="60" height="24" rx="4" fill="#f59e0b"/>
  <text x="670" y="520" text-anchor="middle" fill="white" font-family="system-ui" font-size="11">Review</text>
  <rect x="720" y="503" width="50" height="24" rx="4" fill="#374151"/>
  <text x="745" y="520" text-anchor="middle" fill="#9ca3af" font-family="system-ui" font-size="11">Edit</text>
  
  <!-- Right panel - AI confidence -->
  <rect x="1010" y="104" width="310" height="600" rx="8" fill="#1f2937"/>
  <text x="1040" y="140" fill="#f3f4f6" font-family="system-ui" font-size="16" font-weight="600">AI Detection</text>
  
  <rect x="1030" y="160" width="270" height="100" rx="6" fill="#111827"/>
  <text x="1050" y="190" fill="#9ca3af" font-family="system-ui" font-size="12">Detection Confidence</text>
  <text x="1050" y="230" fill="#22c55e" font-family="system-ui" font-size="32" font-weight="600">94%</text>
  
  <rect x="1030" y="280" width="270" height="180" rx="6" fill="#111827"/>
  <text x="1050" y="310" fill="#9ca3af" font-family="system-ui" font-size="12">PII Categories Found</text>
  <rect x="1050" y="330" width="100" height="28" rx="4" fill="#ef4444" opacity="0.2"/>
  <text x="1100" y="349" text-anchor="middle" fill="#ef4444" font-family="system-ui" font-size="12">Names (2)</text>
  <rect x="1170" y="330" width="80" height="28" rx="4" fill="#ef4444" opacity="0.2"/>
  <text x="1210" y="349" text-anchor="middle" fill="#ef4444" font-family="system-ui" font-size="12">SSN (1)</text>
  <rect x="1050" y="370" width="100" height="28" rx="4" fill="#f59e0b" opacity="0.2"/>
  <text x="1100" y="389" text-anchor="middle" fill="#f59e0b" font-family="system-ui" font-size="12">Address (1)</text>
  <rect x="1170" y="370" width="80" height="28" rx="4" fill="#374151"/>
  <text x="1210" y="389" text-anchor="middle" fill="#9ca3af" font-family="system-ui" font-size="12">Phone (0)</text>
  
  <!-- Legend -->
  <rect x="1030" y="480" width="270" height="100" rx="6" fill="#111827"/>
  <text x="1050" y="510" fill="#9ca3af" font-family="system-ui" font-size="12">Legend</text>
  <circle cx="1060" cy="540" r="6" fill="#3b82f6"/>
  <text x="1080" y="544" fill="#9ca3af" font-family="system-ui" font-size="11">AI Detected</text>
  <circle cx="1180" cy="540" r="6" fill="#22c55e"/>
  <text x="1200" y="544" fill="#9ca3af" font-family="system-ui" font-size="11">Manual</text>
</svg>

