<svg width="1920" height="800" xmlns="http://www.w3.org/2000/svg">
  <defs>
    <linearGradient id="heroBg" x1="0%" y1="0%" x2="100%" y2="100%">
      <stop offset="0%" style="stop-color:#0f172a"/>
      <stop offset="50%" style="stop-color:#1e1b4b"/>
      <stop offset="100%" style="stop-color:#0f172a"/>
    </linearGradient>
  </defs>
  <rect width="100%" height="100%" fill="url(#heroBg)"/>
  
  <!-- App window mockup -->
  <rect x="160" y="80" width="1600" height="640" rx="12" fill="#111827" stroke="#374151" stroke-width="1"/>
  
  <!-- Toolbar -->
  <rect x="160" y="80" width="1600" height="48" rx="12" fill="#1f2937"/>
  <circle cx="192" cy="104" r="6" fill="#ef4444"/>
  <circle cx="216" cy="104" r="6" fill="#f59e0b"/>
  <circle cx="240" cy="104" r="6" fill="#22c55e"/>
  
  <!-- Sidebar -->
  <rect x="160" y="128" width="240" height="592" fill="#1f2937"/>
  <rect x="180" y="160" width="200" height="32" rx="4" fill="#374151"/>
  <rect x="180" y="208" width="160" height="24" rx="4" fill="#374151" opacity="0.5"/>
  <rect x="180" y="248" width="180" height="24" rx="4" fill="#374151" opacity="0.5"/>
  <rect x="180" y="288" width="140" height="24" rx="4" fill="#374151" opacity="0.5"/>
  
  <!-- Video preview area -->
  <rect x="420" y="148" width="900" height="500" rx="8" fill="#0a0a0b"/>
  <circle cx="870" cy="398" r="40" fill="#3b82f6" opacity="0.8"/>
  <polygon points="858,378 858,418 895,398" fill="white"/>
  
  <!-- Timeline -->
  <rect x="420" y="668" width="900" height="40" rx="4" fill="#1f2937"/>
  <rect x="440" y="680" width="200" height="16" rx="2" fill="#3b82f6"/>
  
  <!-- Right panel -->
  <rect x="1340" y="148" width="400" height="500" rx="8" fill="#1f2937"/>
  <rect x="1360" y="168" width="360" height="24" rx="4" fill="#374151"/>
  <rect x="1360" y="212" width="80" height="80" rx="4" fill="#374151"/>
  <rect x="1460" y="212" width="80" height="80" rx="4" fill="#374151"/>
  <rect x="1560" y="212" width="80" height="80" rx="4" fill="#374151"/>
  <rect x="1360" y="312" width="80" height="80" rx="4" fill="#ef4444" opacity="0.3"/>
  <rect x="1460" y="312" width="80" height="80" rx="4" fill="#374151"/>
  <rect x="1560" y="312" width="80" height="80" rx="4" fill="#374151"/>
  
  <text x="960" y="750" text-anchor="middle" fill="#6b7280" font-family="system-ui" font-size="14">Redaction Studio Interface</text>
</svg>

