<svg width="800" height="500" xmlns="http://www.w3.org/2000/svg">
  <defs>
    <linearGradient id="thumbBg" x1="0%" y1="0%" x2="100%" y2="100%">
      <stop offset="0%" style="stop-color:#0f172a"/>
      <stop offset="100%" style="stop-color:#1e1b4b"/>
    </linearGradient>
  </defs>
  <rect width="100%" height="100%" fill="url(#thumbBg)"/>
  
  <!-- Simplified app mockup -->
  <rect x="100" y="60" width="600" height="380" rx="8" fill="#111827" stroke="#374151"/>
  <rect x="100" y="60" width="600" height="36" rx="8" fill="#1f2937"/>
  <circle cx="124" cy="78" r="5" fill="#ef4444"/>
  <circle cx="144" cy="78" r="5" fill="#f59e0b"/>
  <circle cx="164" cy="78" r="5" fill="#22c55e"/>
  
  <!-- Video area -->
  <rect x="180" y="116" width="360" height="200" rx="4" fill="#0a0a0b"/>
  <circle cx="360" cy="216" r="28" fill="#3b82f6"/>
  <polygon points="352,200 352,232 378,216" fill="white"/>
  
  <!-- Face thumbnails -->
  <rect x="560" y="116" width="120" height="200" rx="4" fill="#1f2937"/>
  <circle cx="620" cy="156" r="20" fill="#374151"/>
  <circle cx="620" cy="206" r="20" fill="#ef4444" opacity="0.5"/>
  <circle cx="620" cy="256" r="20" fill="#374151"/>
  
  <!-- Timeline -->
  <rect x="180" y="336" width="360" height="24" rx="2" fill="#1f2937"/>
  <rect x="190" y="342" width="120" height="12" rx="2" fill="#3b82f6"/>
  
  <text x="400" y="460" text-anchor="middle" fill="#9ca3af" font-family="system-ui" font-size="16" font-weight="600">Redaction Studio</text>
</svg>

