<svg width="1920" height="1080" xmlns="http://www.w3.org/2000/svg">
  <defs>
    <linearGradient id="hero3" x1="0%" y1="0%" x2="100%" y2="100%">
      <stop offset="0%" style="stop-color:#1a1625"/>
      <stop offset="100%" style="stop-color:#2d1f3d"/>
    </linearGradient>
  </defs>
  <rect width="100%" height="100%" fill="url(#hero3)"/>
  <rect x="260" y="90" width="1400" height="900" rx="24" fill="#111113" stroke="#ffffff" stroke-opacity="0.1"/>
  <rect x="300" y="150" width="800" height="780" fill="#1f1d23" rx="12"/>
  <rect x="340" y="200" width="720" height="60" rx="8" fill="#2a2730"/>
  <rect x="340" y="300" width="720" height="60" rx="8" fill="#2a2730"/>
  <rect x="340" y="400" width="340" height="60" rx="8" fill="#2a2730"/>
  <rect x="700" y="400" width="360" height="60" rx="8" fill="#2a2730"/>
  <rect x="340" y="500" width="720" height="60" rx="8" fill="#2a2730"/>
  <rect x="340" y="620" width="720" height="70" rx="35" fill="#e8735a"/>
  <text x="700" y="665" text-anchor="middle" fill="#0a0a0b" font-family="system-ui" font-size="24" font-weight="bold">Complete Order</text>
  <rect x="1140" y="150" width="480" height="780" fill="#18161c" rx="12"/>
  <text x="1380" y="220" text-anchor="middle" fill="#fafafa" font-family="system-ui" font-size="20">Order Summary</text>
  <rect x="1180" y="260" width="400" height="80" rx="8" fill="#2a2730"/>
  <rect x="1180" y="360" width="400" height="80" rx="8" fill="#2a2730"/>
</svg>

